<svg width="32" height="32" viewBox="0 0 32 32" xmlns="http://www.w3.org/2000/svg">
  <path
    d="M28 6H4C2.9 6 2 6.9 2 8V24C2 25.1 2.9 26 4 26H28C29.1 26 30 25.1 30 24V8C30 6.9 29.1 6 28 6Z"
    fill="#F5E6E6"
  />
  <path
    d="M28 6H4C3.4 6 2.9 6.3 2.5 6.7L14.8 16.6C15.5 17.2 16.5 17.2 17.2 16.6L29.5 6.7C29.1 6.3 28.6 6 28 6Z"
    fill="#FF4B4B"
  />
  <path
    d="M29.5 6.7L17.2 16.6C16.5 17.2 15.5 17.2 14.8 16.6L2.5 6.7C2.2 7 2 7.5 2 8V24C2 25.1 2.9 26 4 26H28C29.1 26 30 25.1 30 24V8C30 7.5 29.8 7 29.5 6.7Z"
    fill="#FFE2E2"
    opacity="0.6"
  />
</svg> 